<?xml version="1.0" encoding="UTF-8" standalone="no"?>
<!-- Created with Inkscape (http://www.inkscape.org/) -->

<svg
   width="47.25185"
   height="47.25185"
   viewBox="0 0 47.25185 47.25185"
   version="1.1"
   id="svg1"
   xmlns:xlink="http://www.w3.org/1999/xlink"
   xmlns="http://www.w3.org/2000/svg"
   xmlns:svg="http://www.w3.org/2000/svg">
  <defs
     id="defs1">
    <linearGradient
       id="linearGradient13">
      <stop
         style="stop-color:#a431ff;stop-opacity:1;"
         offset="0.08103131"
         id="stop13" />
      <stop
         style="stop-color:#8b07ff;stop-opacity:1;"
         offset="0.1878453"
         id="stop16" />
      <stop
         style="stop-color:#8b07ff;stop-opacity:1;"
         offset="0.84162062"
         id="stop15" />
      <stop
         style="stop-color:#4307ff;stop-opacity:1;"
         offset="1"
         id="stop14" />
    </linearGradient>
    <radialGradient
       xlink:href="#linearGradient13"
       id="radialGradient14"
       cx="27.96464"
       cy="17.173845"
       fx="27.96464"
       fy="17.173845"
       r="15.799155"
       gradientUnits="userSpaceOnUse"
       gradientTransform="matrix(1.7601018,0,0,1.5148129,-18.318664,-9.3484812)" />
  </defs>
  <g
     id="layer1"
     transform="translate(-0.3740747,-0.3740747)">
    <circle
       style="fill:none;stroke:#ffffff;stroke-width:1.95155;stroke-opacity:1"
       id="path1"
       cx="24"
       cy="24"
       r="22.65015" />
    <path
       d="m 46.478367,29.408203 -12.209262,0.02148 c 0.03993,0.299173 0.0621,0.598755 0.06651,0.898438 0.0034,0.04687 0.0064,0.09374 0.0089,0.140625 -0.03314,0.253019 -0.07895,0.505685 -0.137439,0.757812 l 12.289063,-0.02148 -0.0089,-0.898437 z"
       style="fill:#ffffff;stroke-width:1.5066"
       id="path11" />
    <path
       d="m 8.0546875,17.5625 -6.6445313,0.02148 0.00482,0.900391 0.00482,0.898437 6.6325029,-0.02148 c -0.03841,-0.296866 -0.067289,-0.594492 -0.086614,-0.892578 v -0.0059 c 0.019959,-0.30067 0.049639,-0.600904 0.089011,-0.90035 z"
       style="fill:#ffffff;stroke-width:1.10983"
       id="path9" />
    <path
       d="m 30.763672,1.8535156 -0.898438,0.00288 -0.898437,0.00578 0.02148,8.1007108 c 0.298814,-0.046249 0.598396,-0.080917 0.898438,-0.1039656 0.01693,-0.00197 0.03385,-0.00389 0.05078,-0.00578 0.282702,0.00125 0.56534,0.012805 0.847656,0.034655 z"
       style="fill:#ffffff;stroke-width:1.21599"
       id="path12" />
    <path
       d="m 18.919922,32.220703 c -0.299446,0.08805 -0.59968,0.154446 -0.900391,0.199105 -0.02734,0.0055 -0.05468,0.01102 -0.08203,0.01625 -0.272608,-0.04133 -0.544821,-0.10053 -0.816406,-0.17756 l 0.02148,14.679046 0.898438,-0.01075 0.90039,-0.0055 z"
       style="fill:#ffffff;stroke-width:1.65982"
       id="path10" />
    <circle
       style="fill:url(#radialGradient14);stroke:#ffffff;stroke-width:1.83129;stroke-dasharray:none;stroke-opacity:1;paint-order:normal"
       id="path13"
       cx="24"
       cy="24"
       r="17.258509" />
  </g>
</svg>
